<svg xmlns="http://www.w3.org/2000/svg" width="80" height="80" viewBox="0 0 80 80">
  <g id="Grupo_14" data-name="Grupo 14" transform="translate(-5439 -6031)">
    <g id="GRI_Master_Logo-solo" transform="translate(5439 6031)">
      <path id="Caminho_25" data-name="Caminho 25" d="M80,40A40,40,0,1,1,40,0,40,40,0,0,1,80,40Z" transform="translate(0 0)" fill="#0075f2"/>
      <path id="Caminho_26" data-name="Caminho 26" d="M357.332,316.619h3.851V336.3h-3.851ZM328.26,331.111h2.645A5.826,5.826,0,0,1,326.454,333a6.544,6.544,0,1,1,6.143-8.8h4a10.4,10.4,0,1,0-10.146,12.656,9.215,9.215,0,0,0,6.527-2.508V336.3H336.6v-8.8h-8.34v3.619Zm18.987-10.641H343.41v5.369h3.838a2.685,2.685,0,1,0,0-5.369Zm-1.564,9.221H343.41V336.3h-3.851V316.619h7.689a6.536,6.536,0,0,1,2.714,12.482l4.413,7.2h-4.64l-4.051-6.606Z" transform="translate(-286.455 -286.458)" fill="#fffcf2"/>
    </g>
  </g>
</svg>
