<?xml version="1.0" encoding="UTF-8"?>
<svg id="Layer_2" data-name="Layer 2" xmlns="http://www.w3.org/2000/svg" viewBox="0 0 192.06 93.69">
  <defs>
    <style>
      .cls-1 {
        fill: #a32036;
      }

      .cls-2 {
        fill: #56585a;
      }

      .cls-3 {
        letter-spacing: -.02em;
      }

      .cls-4 {
        font-family: Roboto-Regular, Roboto;
        font-size: 18px;
      }

      .cls-5 {
        letter-spacing: -.01em;
      }
    </style>
  </defs>
  <g id="Layer_2-2" data-name="Layer 2">
    <text class="cls-4" transform="translate(1.57 15.4)"><tspan x="0" y="0">AP</tspan><tspan class="cls-3" x="23.1" y="0">O</tspan><tspan class="cls-5" x="35.09" y="0">Y</tspan><tspan x="45.65" y="0">O</tspan></text>
    <g>
      <path class="cls-1" d="m41.35,93.09c-13.35,0-26.7-.02-40.05.03C.18,93.12,0,92.79,0,91.77.04,81.37.04,70.98,0,60.58c0-.91.24-1.09,1.11-1.09,26.91.03,53.83.03,80.75,0,.93,0,1.08.27,1.08,1.12-.03,10.47-.03,20.93,0,31.4,0,.9-.23,1.1-1.11,1.1-13.5-.03-26.99-.02-40.48-.02h0Zm21.03-14.12c.16-1.03,1.14-.09,1.5-.64-1.44-3.55-1.52-3.62-5.22-3.62-.11,0-.22-.02-.32,0-.96.2-1.41-.32-1.92-1.07-.71-1.06-.78-1.89-.08-3.04.6-.98,1.18-1.48,2.32-1.28.3.05.61.01,1.19.01-.73-.94-1.14-1.79-.25-2.66-3.91-.54-3.92-.53-5.67,2.7-.08.16-.15.33-.26.47-1.25,1.53-1.16,2.98.05,4.54.78.99,1.07,2.51,2.02,3.19.96.68,2.48.22,3.75.19.81-.02,1.24.27,1.55.97.2.45.35.97.95,1.08-.28,1.12-1.07,1.97-1.56,2.99-.1.2-.29.27-.52.32-1.86.36-2.65-.03-3.66-1.58-.5-.77-.54-1.37,0-2.1.24-.32.52-.66.55-1.23-1.02.08-2,.08-2.32-1.31-.7,1.16-1.24,2.11-1.85,3.03-.27.41-.27.74-.03,1.16.84,1.44,1.66,2.89,2.44,4.37.26.5.59.61,1.1.6,1.24-.03,2.51-.14,3.73.02,1.66.22,2.65-.37,3.23-1.92.6-1.58,1.51-2.8,3.51-2.33.04.01.1-.08.24-.19-1.09-.91-.3-1.73.28-2.66h-4.77,0Zm2.97-5.66c2.54.32,4.4-.55,5.59-2.61.11-.19.24-.36.32-.55.26-.72.8-.78,1.49-.87,1.6-.21,2.55.32,3.19,1.84.32.75.42,1.27-.06,1.92-.2.27-.46.55-.45,1.07,1.54-.56,1.55.96,2.23,1.71.24-.38.38-.71.62-.97,1.56-1.7,1.47-3.37.11-5.17-.76-1.01-.92-2.67-1.95-3.19-1.02-.52-2.52,0-3.78-.2-2.11-.33-3.41.44-4.1,2.42-.48,1.39-1.38,2.17-2.96,1.8-.14-.03-.28.02-.35.27.52.76.96,1.6.1,2.51h0Zm-4.55,13.37c.76,1.31,1.39,2.33,1.96,3.39.24.45.61.41,1,.41,1.6,0,3.2-.03,4.8.02.57.02.91-.15,1.18-.66.54-1.04,1.04-2.13,1.76-3.04,1.13-1.4,1.02-2.64-.08-3.93-1.13-1.34-1.39-2.71-.13-4.13.06-.06.04-.2.08-.43-1.12.26-1.95-.08-2.33-1.33-.36.59-.54,1.03-.85,1.36-1.43,1.56-1.35,3.1.03,4.63,1.08,1.19.95,2.31.03,3.56-.46.62-.79.95-1.63,1.01-1.56.11-2.78-.15-3.34-1.79-.02-.06-.1-.09-.23-.2-.27,1.05-.95,1.47-2.24,1.14h.01Zm11.61-.55c1.34,0,2.33-.05,3.31.02.83.06,1.36-.18,1.77-.96.73-1.38,2.2-2.68,2.22-4.03.02-1.39-1.48-2.75-2.06-4.22-.68-1.74-1.78-2.38-3.57-2.06-1.62.3-2.91-.1-3.52-1.8-.01-.03-.12-.03-.26-.06-.24,1.13-1.15,1.23-2.19,1.21.37.67.76,1.2.97,1.78.52,1.47,1.51,1.82,3.02,1.76,3-.13,3-.04,4.22,2.76.37.85-.81,2.7-1.75,2.72-.72.02-1.44,0-2.23,0,.31,1,1.32,1.73.06,2.89h0Zm-3.64-18.84c.45-1.07,1.13-1.56,2.33-1.3-.25-.49-.45-.79-.55-1.11-.67-2.2-2.12-2.66-4.37-2.71-2.67-.07-4.49.49-5.3,3.17-.06.2-.19.39-.32.55-1.07,1.3-1.03,2.52,0,3.89.93,1.24,1.79,2.63.41,4.17-.02.03.04.12.09.3,1.26-.58,1.45.56,1.87,1.36,1.57-1.99,1.79-4.03.65-6.13-.2-.37-.4-.75-.62-1.12-.14-.23-.18-.43-.08-.69.71-1.94,1.57-2.5,3.64-2.55.72-.02,1.11.24,1.41.84.21.41.48.79.84,1.36h0Z"/>
      <path class="cls-2" d="m148.33,92.84c-1.65,0-3.11-.04-4.57.02-.66.03-1.01-.22-1.34-.77-2.61-4.28-5.26-8.53-7.86-12.82-.37-.61-.76-.81-1.45-.74-1.24.12-2.49.21-3.73.19-.8-.02-1.01.2-1,1,.04,4.09-.01,8.19.04,12.28.01.9-.24,1.19-1.12,1.11-.85-.08-1.71-.08-2.56,0-.9.09-1.03-.28-1.03-1.07.03-10.36.03-20.72,0-31.08,0-.8.16-1.09,1.03-1.07,3.17.06,6.34-.03,9.51.04,3.15.07,5.97.97,7.92,3.66,3.07,4.24,2.03,10.04-2.36,12.92-.88.58-.98.95-.41,1.86,2.99,4.75,5.91,9.54,8.94,14.48h0Zm-19.94-14.82l.22.08c.62-.85,1.27-1.69,1.86-2.57.31-.47.67-.64,1.23-.63,1.58.01,3.11-.26,4.52-1.05,2.02-1.13,3.08-3.5,2.65-5.92-.39-2.19-2.09-3.83-4.31-4.14-1.84-.26-3.69-.18-5.54-.21-.45,0-.63.11-.63.6.02,4.62.01,9.23.01,13.85h0Z"/>
      <path class="cls-2" d="m151.53,86.69c2.43,1.69,4.85,2.87,7.63,3.07,2.53.18,4.92-.17,6.67-2.29,2.11-2.56,1.55-5.93-1.26-7.73-1.51-.96-3.2-1.54-4.81-2.28-1.97-.91-3.97-1.75-5.51-3.38-4.17-4.43-3.11-10.89,2.27-13.75,3.29-1.76,6.76-1.73,10.28-.91,1.21.28,2.7.4,3.42,1.3.66.82.15,2.25.19,3.42.02.45.12.92-.15,1.44-1.51-1.19-3.08-2.21-4.98-2.55-2.44-.44-4.83-.55-6.91,1.13-2.25,1.83-2.36,4.89-.3,6.93,1.38,1.37,3.16,2.03,4.89,2.76,1.64.7,3.23,1.48,4.75,2.42,5.97,3.73,5.96,11.69-.02,15.45-2.31,1.46-4.86,1.97-7.53,1.96-2.65-.02-5.22-.58-7.71-1.48-.66-.24-.97-.53-.93-1.29.07-1.34.02-2.68.02-4.22h0Z"/>
      <path class="cls-2" d="m110.14,59.72c2.81,0,5.62.02,8.43-.01.63,0,.92.12.85.81-.06.7-.07,1.42,0,2.13.07.78-.24.93-.96.93-3.95-.03-7.9,0-11.85-.03-.78,0-1.1.12-1.08,1.02.07,2.7.06,5.41,0,8.11-.02.83.24.99,1.02.98,3.35-.04,6.69.01,10.04-.04.83-.01,1.07.24.98,1.03-.1.91.38,2.1-.19,2.67-.57.56-1.76.16-2.67.17-2.74.02-5.48.04-8.22-.01-.76-.01-.95.21-.94.95.03,4.52,0,9.04.04,13.56.01.84-.21,1.12-1.06,1.05-.92-.08-1.85-.07-2.77,0-.76.05-.94-.22-.94-.96.03-6.58.02-13.16.02-19.75,0-3.88.03-7.76-.02-11.64-.01-.81.22-1.01,1.01-.99,2.78.05,5.55.02,8.33.02h.01Z"/>
      <path class="cls-2" d="m89.28,76.33c0-5.23.02-10.45-.02-15.68,0-.75.19-.99.94-.94.95.07,1.92.07,2.88,0,.74-.05.89.23.88.91-.03,2.88-.02,5.76-.02,8.64,0,7.54-.02,15.08.02,22.61,0,.88-.2,1.19-1.1,1.11-.88-.08-1.78-.07-2.66,0-.76.06-.94-.23-.94-.96.03-5.23.02-10.45.02-15.68h0Z"/>
      <path class="cls-2" d="m184.44,66.06c-.01,2.94-2.41,5.26-5.42,5.23-2.88-.03-5.27-2.43-5.29-5.31-.02-2.95,2.45-5.4,5.43-5.41,2.98-.01,5.29,2.39,5.28,5.49h0Zm-9.65-.12c-.02,2.41,1.83,4.3,4.28,4.36,2.43.06,4.43-1.9,4.43-4.34s-1.85-4.29-4.31-4.33c-2.49-.04-4.39,1.82-4.42,4.31h0Z"/>
      <path class="cls-1" d="m61.97,79.82c-.1-.41.08-.69.44-.88.15.44-.1.68-.44.88Z"/>
      <path class="cls-2" d="m179.85,66.35c.77.77,1.26,1.53,1.66,2.37-.66.18-1.13.01-1.41-.49-.14-.25-.27-.5-.42-.74-.36-.6-.8-1.21-1.59-.93-.65.23-.17.92-.32,1.38-.11.34.31.93-.45.96-.81.03-.54-.59-.55-.98-.03-1.35.02-2.7-.02-4.05-.02-.62.2-.82.79-.77.49.04.99,0,1.49.01.92.01,1.82.09,2.13,1.18.3,1.07-.32,1.66-1.33,2.07h0Zm-1.21-.69c.61-.07,1.45.13,1.47-.87.01-.78-.62-.82-1.22-.8-.55.02-1.23-.22-1.14.82.05.64.12,1.03.89.85h0Z"/>
    </g>
  </g>
</svg>