<?xml version="1.0" encoding="utf-8"?>
<!-- Generator: Adobe Illustrator 27.1.1, SVG Export Plug-In . SVG Version: 6.00 Build 0)  -->
<svg version="1.1" id="Layer_1" xmlns="http://www.w3.org/2000/svg" xmlns:xlink="http://www.w3.org/1999/xlink" x="0px" y="0px"
	 viewBox="0 0 193 94" style="enable-background:new 0 0 193 94;" xml:space="preserve">
<style type="text/css">
	.st0{fill:#A32036;}
	.st1{fill:#56585A;}
</style>
<path class="st0" d="M41.3,81.2c-13.3,0-26.7,0-40,0c-1.1,0-1.3-0.3-1.3-1.4c0-10.4,0-20.8,0-31.2c0-0.9,0.2-1.1,1.1-1.1
	c26.9,0,53.8,0,80.8,0c0.9,0,1.1,0.3,1.1,1.1c0,10.5,0,20.9,0,31.4c0,0.9-0.2,1.1-1.1,1.1C68.3,81.2,54.8,81.2,41.3,81.2L41.3,81.2z
	 M62.4,67.1c0.2-1,1.1-0.1,1.5-0.6c-1.4-3.6-1.5-3.6-5.2-3.6c-0.1,0-0.2,0-0.3,0c-1,0.2-1.4-0.3-1.9-1.1c-0.7-1.1-0.8-1.9-0.1-3
	c0.6-1,1.2-1.5,2.3-1.3c0.3,0,0.6,0,1.2,0c-0.7-0.9-1.1-1.8-0.2-2.7c-3.9-0.5-3.9-0.5-5.7,2.7c-0.1,0.2-0.2,0.3-0.3,0.5
	c-1.2,1.5-1.2,3,0.1,4.5c0.8,1,1.1,2.5,2,3.2c1,0.7,2.5,0.2,3.8,0.2c0.8,0,1.2,0.3,1.5,1c0.2,0.4,0.3,1,1,1.1c-0.3,1.1-1.1,2-1.6,3
	c-0.1,0.2-0.3,0.3-0.5,0.3c-1.9,0.4-2.7,0-3.7-1.6c-0.5-0.8-0.5-1.4,0-2.1c0.2-0.3,0.5-0.7,0.5-1.2c-1,0.1-2,0.1-2.3-1.3
	c-0.7,1.2-1.2,2.1-1.8,3c-0.3,0.4-0.3,0.7,0,1.2c0.8,1.4,1.7,2.9,2.4,4.4c0.3,0.5,0.6,0.6,1.1,0.6c1.2,0,2.5-0.1,3.7,0
	c1.7,0.2,2.7-0.4,3.2-1.9c0.6-1.6,1.5-2.8,3.5-2.3c0,0,0.1-0.1,0.2-0.2c-1.1-0.9-0.3-1.7,0.3-2.7L62.4,67.1L62.4,67.1z M65.3,61.4
	c2.5,0.3,4.4-0.5,5.6-2.6c0.1-0.2,0.2-0.4,0.3-0.5c0.3-0.7,0.8-0.8,1.5-0.9c1.6-0.2,2.6,0.3,3.2,1.8c0.3,0.8,0.4,1.3-0.1,1.9
	c-0.2,0.3-0.5,0.5-0.4,1.1c1.5-0.6,1.6,1,2.2,1.7c0.2-0.4,0.4-0.7,0.6-1c1.6-1.7,1.5-3.4,0.1-5.2c-0.8-1-0.9-2.7-1.9-3.2
	c-1-0.5-2.5,0-3.8-0.2c-2.1-0.3-3.4,0.4-4.1,2.4c-0.5,1.4-1.4,2.2-3,1.8c-0.1,0-0.3,0-0.3,0.3C65.8,59.7,66.2,60.5,65.3,61.4
	L65.3,61.4z M60.8,74.8c0.8,1.3,1.4,2.3,2,3.4c0.2,0.4,0.6,0.4,1,0.4c1.6,0,3.2,0,4.8,0c0.6,0,0.9-0.2,1.2-0.7c0.5-1,1-2.1,1.8-3
	c1.1-1.4,1-2.6-0.1-3.9c-1.1-1.3-1.4-2.7-0.1-4.1c0.1-0.1,0-0.2,0.1-0.4c-1.1,0.3-2-0.1-2.3-1.3c-0.4,0.6-0.5,1-0.8,1.4
	c-1.4,1.6-1.4,3.1,0,4.6c1.1,1.2,0.9,2.3,0,3.6c-0.5,0.6-0.8,1-1.6,1c-1.6,0.1-2.8-0.2-3.3-1.8c0-0.1-0.1-0.1-0.2-0.2
	C62.8,74.7,62.1,75.1,60.8,74.8L60.8,74.8L60.8,74.8z M72.4,74.3c1.3,0,2.3,0,3.3,0c0.8,0.1,1.4-0.2,1.8-1c0.7-1.4,2.2-2.7,2.2-4
	c0-1.4-1.5-2.8-2.1-4.2c-0.7-1.7-1.8-2.4-3.6-2.1c-1.6,0.3-2.9-0.1-3.5-1.8c0,0-0.1,0-0.3-0.1c-0.2,1.1-1.2,1.2-2.2,1.2
	c0.4,0.7,0.8,1.2,1,1.8c0.5,1.5,1.5,1.8,3,1.8c3-0.1,3,0,4.2,2.8c0.4,0.8-0.8,2.7-1.8,2.7c-0.7,0-1.4,0-2.2,0
	C72.7,72.4,73.7,73.1,72.4,74.3L72.4,74.3z M68.8,55.4c0.5-1.1,1.1-1.6,2.3-1.3c-0.2-0.5-0.4-0.8-0.5-1.1c-0.7-2.2-2.1-2.7-4.4-2.7
	c-2.7-0.1-4.5,0.5-5.3,3.2c-0.1,0.2-0.2,0.4-0.3,0.5c-1.1,1.3-1,2.5,0,3.9c0.9,1.2,1.8,2.6,0.4,4.2c0,0,0,0.1,0.1,0.3
	c1.3-0.6,1.4,0.6,1.9,1.4c1.6-2,1.8-4,0.7-6.1c-0.2-0.4-0.4-0.8-0.6-1.1c-0.1-0.2-0.2-0.4-0.1-0.7c0.7-1.9,1.6-2.5,3.6-2.6
	c0.7,0,1.1,0.2,1.4,0.8C68.1,54.5,68.4,54.9,68.8,55.4L68.8,55.4z"/>
<path class="st1" d="M148.3,81c-1.7,0-3.1,0-4.6,0c-0.7,0-1-0.2-1.3-0.8c-2.6-4.3-5.3-8.5-7.9-12.8c-0.4-0.6-0.8-0.8-1.4-0.7
	c-1.2,0.1-2.5,0.2-3.7,0.2c-0.8,0-1,0.2-1,1c0,4.1,0,8.2,0,12.3c0,0.9-0.2,1.2-1.1,1.1c-0.9-0.1-1.7-0.1-2.6,0c-0.9,0.1-1-0.3-1-1.1
	c0-10.4,0-20.7,0-31.1c0-0.8,0.2-1.1,1-1.1c3.2,0.1,6.3,0,9.5,0c3.1,0.1,6,1,7.9,3.7c3.1,4.2,2,10-2.4,12.9c-0.9,0.6-1,0.9-0.4,1.9
	C142.4,71.2,145.3,76,148.3,81L148.3,81z M128.4,66.1l0.2,0.1c0.6-0.8,1.3-1.7,1.9-2.6c0.3-0.5,0.7-0.6,1.2-0.6
	c1.6,0,3.1-0.3,4.5-1.1c2-1.1,3.1-3.5,2.6-5.9c-0.4-2.2-2.1-3.8-4.3-4.1c-1.8-0.3-3.7-0.2-5.5-0.2c-0.4,0-0.6,0.1-0.6,0.6
	C128.4,56.9,128.4,61.5,128.4,66.1L128.4,66.1z"/>
<path class="st1" d="M151.5,74.8c2.4,1.7,4.9,2.9,7.6,3.1c2.5,0.2,4.9-0.2,6.7-2.3c2.1-2.6,1.6-5.9-1.3-7.7c-1.5-1-3.2-1.5-4.8-2.3
	c-2-0.9-4-1.8-5.5-3.4c-4.2-4.4-3.1-10.9,2.3-13.8c3.3-1.8,6.8-1.7,10.3-0.9c1.2,0.3,2.7,0.4,3.4,1.3c0.7,0.8,0.1,2.2,0.2,3.4
	c0,0.5,0.1,0.9-0.2,1.4c-1.5-1.2-3.1-2.2-5-2.6c-2.4-0.4-4.8-0.5-6.9,1.1c-2.2,1.8-2.4,4.9-0.3,6.9c1.4,1.4,3.2,2,4.9,2.8
	c1.6,0.7,3.2,1.5,4.8,2.4c6,3.7,6,11.7,0,15.5c-2.3,1.5-4.9,2-7.5,2c-2.7,0-5.2-0.6-7.7-1.5c-0.7-0.2-1-0.5-0.9-1.3
	C151.6,77.7,151.5,76.4,151.5,74.8L151.5,74.8z"/>
<path class="st1" d="M110.1,47.8c2.8,0,5.6,0,8.4,0c0.6,0,0.9,0.1,0.8,0.8c-0.1,0.7-0.1,1.4,0,2.1c0.1,0.8-0.2,0.9-1,0.9
	c-3.9,0-7.9,0-11.8,0c-0.8,0-1.1,0.1-1.1,1c0.1,2.7,0.1,5.4,0,8.1c0,0.8,0.2,1,1,1c3.3,0,6.7,0,10,0c0.8,0,1.1,0.2,1,1
	c-0.1,0.9,0.4,2.1-0.2,2.7c-0.6,0.6-1.8,0.2-2.7,0.2c-2.7,0-5.5,0-8.2,0c-0.8,0-0.9,0.2-0.9,0.9c0,4.5,0,9,0,13.6
	c0,0.8-0.2,1.1-1.1,1.1c-0.9-0.1-1.8-0.1-2.8,0c-0.8,0.1-0.9-0.2-0.9-1c0-6.6,0-13.2,0-19.8c0-3.9,0-7.8,0-11.6c0-0.8,0.2-1,1-1
	C104.6,47.9,107.4,47.8,110.1,47.8L110.1,47.8L110.1,47.8z"/>
<path class="st1" d="M89.3,64.5c0-5.2,0-10.5,0-15.7c0-0.8,0.2-1,0.9-0.9c1,0.1,1.9,0.1,2.9,0c0.7,0,0.9,0.2,0.9,0.9
	c0,2.9,0,5.8,0,8.6c0,7.5,0,15.1,0,22.6c0,0.9-0.2,1.2-1.1,1.1c-0.9-0.1-1.8-0.1-2.7,0c-0.8,0.1-0.9-0.2-0.9-1
	C89.3,74.9,89.3,69.7,89.3,64.5L89.3,64.5z"/>
<path class="st1" d="M184.4,54.2c0,2.9-2.4,5.3-5.4,5.2c-2.9,0-5.3-2.4-5.3-5.3c0-3,2.4-5.4,5.4-5.4
	C182.1,48.7,184.4,51.1,184.4,54.2L184.4,54.2z M174.8,54.1c0,2.4,1.8,4.3,4.3,4.4c2.4,0.1,4.4-1.9,4.4-4.3c0-2.4-1.9-4.3-4.3-4.3
	C176.7,49.7,174.8,51.6,174.8,54.1L174.8,54.1z"/>
<path class="st0" d="M62,67.9c-0.1-0.4,0.1-0.7,0.4-0.9C62.6,67.5,62.3,67.7,62,67.9z"/>
<path class="st1" d="M179.9,54.5c0.8,0.8,1.3,1.5,1.7,2.4c-0.7,0.2-1.1,0-1.4-0.5c-0.1-0.2-0.3-0.5-0.4-0.7
	c-0.4-0.6-0.8-1.2-1.6-0.9c-0.6,0.2-0.2,0.9-0.3,1.4c-0.1,0.3,0.3,0.9-0.4,1c-0.8,0-0.5-0.6-0.6-1c0-1.4,0-2.7,0-4.1
	c0-0.6,0.2-0.8,0.8-0.8c0.5,0,1,0,1.5,0c0.9,0,1.8,0.1,2.1,1.2C181.5,53.5,180.8,54.1,179.9,54.5L179.9,54.5z M178.6,53.8
	c0.6-0.1,1.4,0.1,1.5-0.9c0-0.8-0.6-0.8-1.2-0.8c-0.6,0-1.2-0.2-1.1,0.8C177.8,53.6,177.9,54,178.6,53.8L178.6,53.8z"/>
</svg>
