<svg width="193" height="94" viewBox="0 0 193 94" fill="none" xmlns="http://www.w3.org/2000/svg">
<path d="M41.35 81.2113C28 81.2113 14.65 81.1913 1.3 81.2413C0.18 81.2413 0 80.9113 0 79.8913C0.04 69.4913 0.04 59.1013 0 48.7013C0 47.7913 0.24 47.6113 1.11 47.6113C28.02 47.6413 54.94 47.6413 81.86 47.6113C82.79 47.6113 82.94 47.8813 82.94 48.7313C82.91 59.2013 82.91 69.6613 82.94 80.1313C82.94 81.0313 82.71 81.2313 81.83 81.2313C68.33 81.2013 54.84 81.2113 41.35 81.2113V81.2113ZM62.38 67.0913C62.54 66.0613 63.52 67.0013 63.88 66.4513C62.44 62.9013 62.36 62.8313 58.66 62.8313C58.55 62.8313 58.44 62.8113 58.34 62.8313C57.38 63.0313 56.93 62.5113 56.42 61.7613C55.71 60.7013 55.64 59.8713 56.34 58.7213C56.94 57.7413 57.52 57.2413 58.66 57.4413C58.96 57.4913 59.27 57.4513 59.85 57.4513C59.12 56.5113 58.71 55.6613 59.6 54.7913C55.69 54.2513 55.68 54.2613 53.93 57.4913C53.85 57.6513 53.78 57.8213 53.67 57.9613C52.42 59.4913 52.51 60.9413 53.72 62.5013C54.5 63.4913 54.79 65.0113 55.74 65.6913C56.7 66.3713 58.22 65.9113 59.49 65.8813C60.3 65.8613 60.73 66.1513 61.04 66.8513C61.24 67.3013 61.39 67.8213 61.99 67.9313C61.71 69.0513 60.92 69.9013 60.43 70.9213C60.33 71.1213 60.14 71.1913 59.91 71.2413C58.05 71.6013 57.26 71.2113 56.25 69.6613C55.75 68.8913 55.71 68.2913 56.25 67.5613C56.49 67.2413 56.77 66.9013 56.8 66.3313C55.78 66.4113 54.8 66.4113 54.48 65.0213C53.78 66.1813 53.24 67.1313 52.63 68.0513C52.36 68.4613 52.36 68.7913 52.6 69.2113C53.44 70.6513 54.26 72.1013 55.04 73.5813C55.3 74.0813 55.63 74.1913 56.14 74.1813C57.38 74.1513 58.65 74.0413 59.87 74.2013C61.53 74.4213 62.52 73.8313 63.1 72.2813C63.7 70.7013 64.61 69.4813 66.61 69.9513C66.65 69.9613 66.71 69.8713 66.85 69.7613C65.76 68.8513 66.55 68.0313 67.13 67.1013H62.36L62.38 67.0913ZM65.35 61.4313C67.89 61.7513 69.75 60.8813 70.94 58.8213C71.05 58.6313 71.18 58.4613 71.26 58.2713C71.52 57.5513 72.06 57.4913 72.75 57.4013C74.35 57.1913 75.3 57.7213 75.94 59.2413C76.26 59.9913 76.36 60.5113 75.88 61.1613C75.68 61.4313 75.42 61.7113 75.43 62.2313C76.97 61.6713 76.98 63.1913 77.66 63.9413C77.9 63.5613 78.04 63.2313 78.28 62.9713C79.84 61.2713 79.75 59.6013 78.39 57.8013C77.63 56.7913 77.47 55.1313 76.44 54.6113C75.42 54.0913 73.92 54.6113 72.66 54.4113C70.55 54.0813 69.25 54.8513 68.56 56.8313C68.08 58.2213 67.18 59.0013 65.6 58.6313C65.46 58.6013 65.32 58.6513 65.25 58.9013C65.77 59.6613 66.21 60.5013 65.35 61.4113V61.4313ZM60.8 74.8013C61.56 76.1113 62.19 77.1313 62.76 78.1913C63 78.6413 63.37 78.6013 63.76 78.6013C65.36 78.6013 66.96 78.5713 68.56 78.6213C69.13 78.6413 69.47 78.4713 69.74 77.9613C70.28 76.9213 70.78 75.8313 71.5 74.9213C72.63 73.5213 72.52 72.2813 71.42 70.9913C70.29 69.6513 70.03 68.2813 71.29 66.8613C71.35 66.8013 71.33 66.6613 71.37 66.4313C70.25 66.6913 69.42 66.3513 69.04 65.1013C68.68 65.6913 68.5 66.1313 68.19 66.4613C66.76 68.0213 66.84 69.5613 68.22 71.0913C69.3 72.2813 69.17 73.4013 68.25 74.6513C67.79 75.2713 67.46 75.6013 66.62 75.6613C65.06 75.7713 63.84 75.5113 63.28 73.8713C63.26 73.8113 63.18 73.7813 63.05 73.6713C62.78 74.7213 62.1 75.1413 60.81 74.8113H60.82L60.8 74.8013ZM72.41 74.2513C73.75 74.2513 74.74 74.2013 75.72 74.2713C76.55 74.3313 77.08 74.0913 77.49 73.3113C78.22 71.9313 79.69 70.6313 79.71 69.2813C79.73 67.8913 78.23 66.5313 77.65 65.0613C76.97 63.3213 75.87 62.6813 74.08 63.0013C72.46 63.3013 71.17 62.9013 70.56 61.2013C70.55 61.1713 70.44 61.1713 70.3 61.1413C70.06 62.2713 69.15 62.3713 68.11 62.3513C68.48 63.0213 68.87 63.5513 69.08 64.1313C69.6 65.6013 70.59 65.9513 72.1 65.8913C75.1 65.7613 75.1 65.8513 76.32 68.6513C76.69 69.5013 75.51 71.3513 74.57 71.3713C73.85 71.3913 73.13 71.3713 72.34 71.3713C72.65 72.3713 73.66 73.1013 72.4 74.2613L72.41 74.2513ZM68.77 55.4113C69.22 54.3413 69.9 53.8513 71.1 54.1113C70.85 53.6213 70.65 53.3213 70.55 53.0013C69.88 50.8013 68.43 50.3413 66.18 50.2913C63.51 50.2213 61.69 50.7813 60.88 53.4613C60.82 53.6613 60.69 53.8513 60.56 54.0113C59.49 55.3113 59.53 56.5313 60.56 57.9013C61.49 59.1413 62.35 60.5313 60.97 62.0713C60.95 62.1013 61.01 62.1913 61.06 62.3713C62.32 61.7913 62.51 62.9313 62.93 63.7313C64.5 61.7413 64.72 59.7013 63.58 57.6013C63.38 57.2313 63.18 56.8513 62.96 56.4813C62.82 56.2513 62.78 56.0513 62.88 55.7913C63.59 53.8513 64.45 53.2913 66.52 53.2413C67.24 53.2213 67.63 53.4813 67.93 54.0813C68.14 54.4913 68.41 54.8713 68.77 55.4413V55.4113Z" fill="#A32036"/>
<path d="M148.33 80.9613C146.68 80.9613 145.22 80.9213 143.76 80.9813C143.1 81.0113 142.75 80.7613 142.42 80.2113C139.81 75.9313 137.16 71.6813 134.56 67.3913C134.19 66.7813 133.8 66.5813 133.11 66.6513C131.87 66.7713 130.62 66.8613 129.38 66.8413C128.58 66.8213 128.37 67.0413 128.38 67.8413C128.42 71.9313 128.37 76.0313 128.42 80.1213C128.43 81.0213 128.18 81.3113 127.3 81.2313C126.45 81.1513 125.59 81.1513 124.74 81.2313C123.84 81.3213 123.71 80.9513 123.71 80.1613C123.74 69.8013 123.74 59.4413 123.71 49.0813C123.71 48.2813 123.87 47.9913 124.74 48.0113C127.91 48.0713 131.08 47.9813 134.25 48.0513C137.4 48.1213 140.22 49.0213 142.17 51.7113C145.24 55.9513 144.2 61.7513 139.81 64.6313C138.93 65.2113 138.83 65.5813 139.4 66.4913C142.39 71.2413 145.31 76.0313 148.34 80.9713L148.33 80.9613ZM128.39 66.1413L128.61 66.2213C129.23 65.3713 129.88 64.5313 130.47 63.6513C130.78 63.1813 131.14 63.0113 131.7 63.0213C133.28 63.0313 134.81 62.7613 136.22 61.9713C138.24 60.8413 139.3 58.4713 138.87 56.0513C138.48 53.8613 136.78 52.2213 134.56 51.9113C132.72 51.6513 130.87 51.7313 129.02 51.7013C128.57 51.7013 128.39 51.8113 128.39 52.3013C128.41 56.9213 128.4 61.5313 128.4 66.1513L128.39 66.1413Z" fill="#56585A"/>
<path d="M151.53 74.8113C153.96 76.5013 156.38 77.6813 159.16 77.8813C161.69 78.0613 164.08 77.7113 165.83 75.5913C167.94 73.0313 167.38 69.6613 164.57 67.8613C163.06 66.9013 161.37 66.3213 159.76 65.5813C157.79 64.6713 155.79 63.8313 154.25 62.2013C150.08 57.7713 151.14 51.3113 156.52 48.4513C159.81 46.6913 163.28 46.7213 166.8 47.5413C168.01 47.8213 169.5 47.9413 170.22 48.8413C170.88 49.6613 170.37 51.0913 170.41 52.2613C170.43 52.7113 170.53 53.1813 170.26 53.7013C168.75 52.5113 167.18 51.4913 165.28 51.1513C162.84 50.7113 160.45 50.6013 158.37 52.2813C156.12 54.1113 156.01 57.1713 158.07 59.2113C159.45 60.5813 161.23 61.2413 162.96 61.9713C164.6 62.6713 166.19 63.4513 167.71 64.3913C173.68 68.1213 173.67 76.0813 167.69 79.8413C165.38 81.3013 162.83 81.8113 160.16 81.8013C157.51 81.7813 154.94 81.2213 152.45 80.3213C151.79 80.0813 151.48 79.7913 151.52 79.0313C151.59 77.6913 151.54 76.3513 151.54 74.8113H151.53Z" fill="#56585A"/>
<path d="M110.14 47.8413C112.95 47.8413 115.76 47.8613 118.57 47.8313C119.2 47.8313 119.49 47.9513 119.42 48.6413C119.36 49.3413 119.35 50.0613 119.42 50.7713C119.49 51.5513 119.18 51.7013 118.46 51.7013C114.51 51.6713 110.56 51.7013 106.61 51.6713C105.83 51.6713 105.51 51.7913 105.53 52.6913C105.6 55.3913 105.59 58.1013 105.53 60.8013C105.51 61.6313 105.77 61.7913 106.55 61.7813C109.9 61.7413 113.24 61.7913 116.59 61.7413C117.42 61.7313 117.66 61.9813 117.57 62.7713C117.47 63.6813 117.95 64.8713 117.38 65.4413C116.81 66.0013 115.62 65.6013 114.71 65.6113C111.97 65.6313 109.23 65.6513 106.49 65.6013C105.73 65.5913 105.54 65.8113 105.55 66.5513C105.58 71.0713 105.55 75.5913 105.59 80.1113C105.6 80.9513 105.38 81.2313 104.53 81.1613C103.61 81.0813 102.68 81.0913 101.76 81.1613C101 81.2113 100.82 80.9413 100.82 80.2013C100.85 73.6213 100.84 67.0413 100.84 60.4513C100.84 56.5713 100.87 52.6913 100.82 48.8113C100.81 48.0013 101.04 47.8013 101.83 47.8213C104.61 47.8713 107.38 47.8413 110.16 47.8413H110.17H110.14Z" fill="#56585A"/>
<path d="M89.28 64.4513C89.28 59.2213 89.3 54.0013 89.26 48.7713C89.26 48.0213 89.45 47.7813 90.2 47.8313C91.15 47.9013 92.12 47.9013 93.08 47.8313C93.82 47.7813 93.97 48.0613 93.96 48.7413C93.93 51.6213 93.94 54.5013 93.94 57.3813C93.94 64.9213 93.92 72.4613 93.96 79.9913C93.96 80.8713 93.76 81.1813 92.86 81.1013C91.98 81.0213 91.08 81.0313 90.2 81.1013C89.44 81.1613 89.26 80.8713 89.26 80.1413C89.29 74.9113 89.28 69.6913 89.28 64.4613V64.4513Z" fill="#56585A"/>
<path d="M184.44 54.1813C184.43 57.1213 182.03 59.4413 179.02 59.4113C176.14 59.3813 173.75 56.9813 173.73 54.1013C173.71 51.1513 176.18 48.7013 179.16 48.6913C182.14 48.6813 184.45 51.0813 184.44 54.1813V54.1813ZM174.79 54.0613C174.77 56.4713 176.62 58.3613 179.07 58.4213C181.5 58.4813 183.5 56.5213 183.5 54.0813C183.5 51.6413 181.65 49.7913 179.19 49.7513C176.7 49.7113 174.8 51.5713 174.77 54.0613H174.79Z" fill="#56585A"/>
<path d="M61.97 67.9413C61.87 67.5313 62.05 67.2513 62.41 67.0613C62.56 67.5013 62.31 67.7413 61.97 67.9413Z" fill="#A32036"/>
<path d="M179.85 54.4713C180.62 55.2413 181.11 56.0013 181.51 56.8413C180.85 57.0213 180.38 56.8513 180.1 56.3513C179.96 56.1013 179.83 55.8513 179.68 55.6113C179.32 55.0113 178.88 54.4013 178.09 54.6813C177.44 54.9113 177.92 55.6013 177.77 56.0613C177.66 56.4013 178.08 56.9913 177.32 57.0213C176.51 57.0513 176.78 56.4313 176.77 56.0413C176.74 54.6913 176.79 53.3413 176.75 51.9913C176.73 51.3713 176.95 51.1713 177.54 51.2213C178.03 51.2613 178.53 51.2213 179.03 51.2313C179.95 51.2413 180.85 51.3213 181.16 52.4113C181.46 53.4813 180.84 54.0713 179.83 54.4813L179.85 54.4713ZM178.64 53.7813C179.25 53.7113 180.09 53.9113 180.11 52.9113C180.12 52.1313 179.49 52.0913 178.89 52.1113C178.34 52.1313 177.66 51.8913 177.75 52.9313C177.8 53.5713 177.87 53.9613 178.64 53.7813V53.7813Z" fill="#56585A"/>
<path d="M1.65057 14H0.357955L4.09659 3.81818H5.36932L9.10795 14H7.81534L4.77273 5.42898H4.69318L1.65057 14ZM2.12784 10.0227H7.33807V11.1165H2.12784V10.0227ZM10.6939 14V3.81818H14.1342C14.933 3.81818 15.5859 3.96236 16.093 4.25071C16.6035 4.53575 16.9813 4.92188 17.2266 5.40909C17.4718 5.89631 17.5945 6.43987 17.5945 7.03977C17.5945 7.63968 17.4718 8.1849 17.2266 8.67543C16.9846 9.16596 16.6101 9.55705 16.103 9.84872C15.5959 10.1371 14.9463 10.2812 14.1541 10.2812H11.6882V9.1875H14.1143C14.6612 9.1875 15.1004 9.09304 15.4318 8.90412C15.7633 8.7152 16.0036 8.45999 16.1527 8.13849C16.3052 7.81368 16.3814 7.44744 16.3814 7.03977C16.3814 6.6321 16.3052 6.26752 16.1527 5.94602C16.0036 5.62453 15.7616 5.37263 15.4268 5.19034C15.0921 5.00473 14.648 4.91193 14.0945 4.91193H11.9268V14H10.6939ZM28.1715 8.90909C28.1715 9.98295 27.9776 10.911 27.5898 11.6932C27.2021 12.4754 26.6701 13.0786 25.994 13.5028C25.3178 13.9271 24.5456 14.1392 23.6772 14.1392C22.8088 14.1392 22.0366 13.9271 21.3604 13.5028C20.6843 13.0786 20.1523 12.4754 19.7646 11.6932C19.3768 10.911 19.1829 9.98295 19.1829 8.90909C19.1829 7.83523 19.3768 6.9072 19.7646 6.125C20.1523 5.3428 20.6843 4.73958 21.3604 4.31534C22.0366 3.8911 22.8088 3.67898 23.6772 3.67898C24.5456 3.67898 25.3178 3.8911 25.994 4.31534C26.6701 4.73958 27.2021 5.3428 27.5898 6.125C27.9776 6.9072 28.1715 7.83523 28.1715 8.90909ZM26.9783 8.90909C26.9783 8.02746 26.8308 7.28338 26.5359 6.67685C26.2442 6.07031 25.8481 5.61127 25.3477 5.29972C24.8505 4.98816 24.2937 4.83239 23.6772 4.83239C23.0607 4.83239 22.5022 4.98816 22.0018 5.29972C21.5046 5.61127 21.1085 6.07031 20.8136 6.67685C20.5219 7.28338 20.3761 8.02746 20.3761 8.90909C20.3761 9.79072 20.5219 10.5348 20.8136 11.1413C21.1085 11.7479 21.5046 12.2069 22.0018 12.5185C22.5022 12.83 23.0607 12.9858 23.6772 12.9858C24.2937 12.9858 24.8505 12.83 25.3477 12.5185C25.8481 12.2069 26.2442 11.7479 26.5359 11.1413C26.8308 10.5348 26.9783 9.79072 26.9783 8.90909ZM28.8912 3.81818H30.3031L33.127 8.57102H33.2463L36.0701 3.81818H37.4821L33.8031 9.80398V14H32.5701V9.80398L28.8912 3.81818ZM47.1891 8.90909C47.1891 9.98295 46.9952 10.911 46.6074 11.6932C46.2196 12.4754 45.6877 13.0786 45.0115 13.5028C44.3354 13.9271 43.5632 14.1392 42.6948 14.1392C41.8264 14.1392 41.0542 13.9271 40.378 13.5028C39.7019 13.0786 39.1699 12.4754 38.7821 11.6932C38.3944 10.911 38.2005 9.98295 38.2005 8.90909C38.2005 7.83523 38.3944 6.9072 38.7821 6.125C39.1699 5.3428 39.7019 4.73958 40.378 4.31534C41.0542 3.8911 41.8264 3.67898 42.6948 3.67898C43.5632 3.67898 44.3354 3.8911 45.0115 4.31534C45.6877 4.73958 46.2196 5.3428 46.6074 6.125C46.9952 6.9072 47.1891 7.83523 47.1891 8.90909ZM45.9959 8.90909C45.9959 8.02746 45.8484 7.28338 45.5534 6.67685C45.2618 6.07031 44.8657 5.61127 44.3652 5.29972C43.8681 4.98816 43.3113 4.83239 42.6948 4.83239C42.0783 4.83239 41.5198 4.98816 41.0194 5.29972C40.5222 5.61127 40.1261 6.07031 39.8311 6.67685C39.5395 7.28338 39.3936 8.02746 39.3936 8.90909C39.3936 9.79072 39.5395 10.5348 39.8311 11.1413C40.1261 11.7479 40.5222 12.2069 41.0194 12.5185C41.5198 12.83 42.0783 12.9858 42.6948 12.9858C43.3113 12.9858 43.8681 12.83 44.3652 12.5185C44.8657 12.2069 45.2618 11.7479 45.5534 11.1413C45.8484 10.5348 45.9959 9.79072 45.9959 8.90909Z" fill="black"/>
</svg>
