<?xml version="1.0" encoding="UTF-8"?>
<svg id="Layer_2" data-name="Layer 2" xmlns="http://www.w3.org/2000/svg" viewBox="0 0 195.46 55.56">
  <defs>
    <style>
      .cls-1 {
        fill: #2B4A79;
      }
    </style>
  </defs>
  <g id="Layer_2-2" data-name="Layer 2">
    <g>
      <path class="cls-1" d="m195.46,47.76c0,3.83-3.11,6.93-6.93,6.93s-6.94-3.1-6.94-6.93,3.11-6.94,6.94-6.94,6.93,3.11,6.93,6.94"/>
      <path class="cls-1" d="m195.46,6.93c0,3.83-3.11,6.93-6.93,6.93s-6.94-3.1-6.94-6.93,3.11-6.93,6.94-6.93,6.93,3.11,6.93,6.93"/>
      <path class="cls-1" d="m195.46,27.35c0,3.83-3.11,6.93-6.93,6.93s-6.94-3.1-6.94-6.93,3.11-6.94,6.94-6.94,6.93,3.11,6.93,6.94"/>
      <g>
        <path class="cls-1" d="m8.98,16.45c1.49-2.79,4.04-4.93,6.78-4.93,1.25,0,2.38.3,3.33.71l-.71,9.03c-1.13-.36-1.96-.48-3.21-.48-1.96,0-4.1,1.55-5.05,2.79v20.09H0V12.23h7.9l1.07,4.22Z"/>
        <path class="cls-1" d="m48.32,40.46c-3.8,2.5-8.14,3.98-13.25,3.98-9.99,0-15.81-6-15.81-16.23s6.12-16.7,15.93-16.7c9.15,0,14.32,4.87,14.32,14.86,0,.89-.06,3.74-.18,4.46h-19.38c.42,2.91,2.08,5.65,6.48,5.65,2.91,0,5.41-.65,9.27-2.32l2.62,6.3Zm-8.38-15.75c0-3.21-1.13-5.71-4.64-5.71-3.8,0-5.29,3.39-5.35,5.71h9.99Z"/>
        <path class="cls-1" d="m53.43,55.56V12.23h8.26l1.13,3.63c2.79-2.97,6.06-4.34,9.93-4.34,7.07,0,12.6,4.99,12.6,16.23,0,10.52-4.52,16.64-13.19,16.64-4.4,0-7.19-2.02-8.62-3.33v14.5h-10.1Zm10.1-21.87c.89.83,3.15,2.5,5.71,2.5,3.21,0,5.35-2.2,5.35-8.08s-1.6-8.38-5.23-8.38c-2.38,0-4.81,1.84-5.82,2.97v11Z"/>
        <path class="cls-1" d="m104.37,11.51c9.21,0,16.35,5.41,16.35,16.4s-7.37,16.52-16.94,16.52-16.05-5.53-16.05-16.29,7.43-16.64,16.64-16.64Zm-.12,24.67c3.39,0,5.82-2.2,5.82-8.26s-2.38-8.26-5.82-8.26-5.88,2.56-5.88,8.26c0,6.06,2.38,8.26,5.88,8.26Z"/>
        <path class="cls-1" d="m133.19,16.45c1.49-2.79,4.04-4.93,6.78-4.93,1.25,0,2.38.3,3.33.71l-.71,9.03c-1.13-.36-1.96-.48-3.21-.48-1.96,0-4.1,1.55-5.05,2.79v20.09h-10.1V12.23h7.9l1.07,4.22Z"/>
        <path class="cls-1" d="m158.57,19.54v15.1c0,1.61.65,2.2,2.08,2.2.89,0,1.72-.18,2.56-.42l.89,6.78c-2.5.83-4.87,1.25-7.55,1.25-5.59,0-8.02-3.03-8.02-7.9v-17h-4.28v-5.71l4.46-1.55.95-9.39h8.92v9.33h5.11v7.31h-5.11Z"/>
      </g>
    </g>
  </g>
</svg>