<?xml version="1.0" encoding="UTF-8"?>
<svg id="Layer_2" data-name="Layer 2" xmlns="http://www.w3.org/2000/svg" viewBox="0 0 253.1 100.21">
  <defs>
    <style>
      .cls-1 {
        font-family: Roboto-Regular, Roboto;
        font-size: 21.23px;
      }

      .cls-2 {
        letter-spacing: 0em;
      }

      .cls-3 {
        fill: #2b4a79;
      }
    </style>
  </defs>
  <g id="Layer_2-2" data-name="Layer 2">
    <text class="cls-1" transform="translate(0 19.15)"><tspan x="0" y="0">REALI</tspan><tspan class="cls-2" x="56.2" y="0">Z</tspan><tspan x="69.04" y="0">ACIÓN</tspan></text>
    <g>
      <path class="cls-3" d="m239.91,90.84c0,4.61-3.74,8.34-8.34,8.34s-8.35-3.73-8.35-8.34,3.74-8.35,8.35-8.35,8.34,3.74,8.34,8.35"/>
      <path class="cls-3" d="m239.91,41.7c0,4.61-3.74,8.34-8.34,8.34s-8.35-3.74-8.35-8.34,3.74-8.35,8.35-8.35,8.34,3.74,8.34,8.35"/>
      <path class="cls-3" d="m239.91,66.27c0,4.61-3.74,8.34-8.34,8.34s-8.35-3.73-8.35-8.34,3.74-8.35,8.35-8.35,8.34,3.74,8.34,8.35"/>
      <g>
        <path class="cls-3" d="m15.49,53.15c1.79-3.36,4.86-5.94,8.15-5.94,1.5,0,2.86.36,4.01.86l-.86,10.87c-1.36-.43-2.36-.57-3.86-.57-2.36,0-4.94,1.86-6.08,3.36v24.18H4.69v-37.84h9.51l1.29,5.08Z"/>
        <path class="cls-3" d="m62.84,82.05c-4.58,3-9.8,4.79-15.95,4.79-12.02,0-19.03-7.22-19.03-19.53s7.37-20.1,19.17-20.1c11.02,0,17.24,5.87,17.24,17.88,0,1.07-.07,4.51-.21,5.36h-23.32c.5,3.51,2.5,6.8,7.8,6.8,3.5,0,6.51-.79,11.16-2.79l3.15,7.58Zm-10.09-18.95c0-3.86-1.36-6.87-5.58-6.87-4.58,0-6.37,4.08-6.44,6.87h12.02Z"/>
        <path class="cls-3" d="m68.99,100.21v-52.14h9.94l1.36,4.36c3.36-3.58,7.3-5.22,11.94-5.22,8.51,0,15.16,6.01,15.16,19.53,0,12.66-5.44,20.03-15.88,20.03-5.29,0-8.66-2.43-10.37-4.01v17.45h-12.16Zm12.16-26.32c1.07,1,3.79,3,6.87,3,3.86,0,6.44-2.65,6.44-9.73s-1.93-10.09-6.29-10.09c-2.86,0-5.79,2.22-7.01,3.58v13.23Z"/>
        <path class="cls-3" d="m130.29,47.21c11.09,0,19.67,6.51,19.67,19.74s-8.87,19.88-20.39,19.88-19.31-6.65-19.31-19.6,8.94-20.03,20.03-20.03Zm-.14,29.68c4.08,0,7.01-2.65,7.01-9.94s-2.86-9.94-7.01-9.94-7.08,3.08-7.08,9.94c0,7.3,2.86,9.94,7.08,9.94Z"/>
        <path class="cls-3" d="m164.98,53.15c1.79-3.36,4.86-5.94,8.15-5.94,1.5,0,2.86.36,4.01.86l-.86,10.87c-1.36-.43-2.36-.57-3.86-.57-2.36,0-4.94,1.86-6.08,3.36v24.18h-12.16v-37.84h9.51l1.29,5.08Z"/>
        <path class="cls-3" d="m195.52,56.87v18.17c0,1.93.79,2.65,2.5,2.65,1.07,0,2.07-.21,3.08-.5l1.07,8.15c-3,1-5.87,1.5-9.08,1.5-6.72,0-9.66-3.65-9.66-9.51v-20.46h-5.15v-6.87l5.36-1.86,1.14-11.3h10.73v11.23h6.15v8.8h-6.15Z"/>
      </g>
    </g>
  </g>
</svg>