<svg width="196" height="93" viewBox="0 0 196 93" fill="none" xmlns="http://www.w3.org/2000/svg">
<path d="M195.46 84.76C195.46 88.59 192.35 91.69 188.53 91.69C184.71 91.69 181.59 88.59 181.59 84.76C181.59 80.93 184.7 77.82 188.53 77.82C192.36 77.82 195.46 80.93 195.46 84.76Z" fill="#2B4A79"/>
<path d="M195.46 43.93C195.46 47.76 192.35 50.86 188.53 50.86C184.71 50.86 181.59 47.76 181.59 43.93C181.59 40.1 184.7 37 188.53 37C192.36 37 195.46 40.11 195.46 43.93Z" fill="#2B4A79"/>
<path d="M195.46 64.35C195.46 68.18 192.35 71.28 188.53 71.28C184.71 71.28 181.59 68.18 181.59 64.35C181.59 60.52 184.7 57.41 188.53 57.41C192.36 57.41 195.46 60.52 195.46 64.35Z" fill="#2B4A79"/>
<path d="M8.98 53.45C10.47 50.66 13.02 48.52 15.76 48.52C17.01 48.52 18.14 48.82 19.09 49.23L18.38 58.26C17.25 57.9 16.42 57.78 15.17 57.78C13.21 57.78 11.07 59.33 10.12 60.57V80.66H0V49.23H7.9L8.97 53.45H8.98Z" fill="#2B4A79"/>
<path d="M48.32 77.46C44.52 79.96 40.18 81.44 35.07 81.44C25.08 81.44 19.26 75.44 19.26 65.21C19.26 54.98 25.38 48.51 35.19 48.51C44.34 48.51 49.51 53.38 49.51 63.37C49.51 64.26 49.45 67.11 49.33 67.83H29.95C30.37 70.74 32.03 73.48 36.43 73.48C39.34 73.48 41.84 72.83 45.7 71.16L48.32 77.46ZM39.94 61.71C39.94 58.5 38.81 56 35.3 56C31.5 56 30.01 59.39 29.95 61.71H39.94Z" fill="#2B4A79"/>
<path d="M53.43 92.56V49.23H61.69L62.82 52.86C65.61 49.89 68.88 48.52 72.75 48.52C79.82 48.52 85.35 53.51 85.35 64.75C85.35 75.27 80.83 81.39 72.16 81.39C67.76 81.39 64.97 79.37 63.54 78.06V92.56H53.43ZM63.53 70.69C64.42 71.52 66.68 73.19 69.24 73.19C72.45 73.19 74.59 70.99 74.59 65.11C74.59 59.23 72.99 56.73 69.36 56.73C66.98 56.73 64.55 58.57 63.54 59.7V70.7L63.53 70.69Z" fill="#2B4A79"/>
<path d="M104.37 48.51C113.58 48.51 120.72 53.92 120.72 64.91C120.72 75.9 113.35 81.43 103.78 81.43C94.21 81.43 87.73 75.9 87.73 65.14C87.73 54.38 95.16 48.5 104.37 48.5V48.51ZM104.25 73.18C107.64 73.18 110.07 70.98 110.07 64.92C110.07 58.86 107.69 56.66 104.25 56.66C100.81 56.66 98.37 59.22 98.37 64.92C98.37 70.98 100.75 73.18 104.25 73.18Z" fill="#2B4A79"/>
<path d="M133.19 53.45C134.68 50.66 137.23 48.52 139.97 48.52C141.22 48.52 142.35 48.82 143.3 49.23L142.59 58.26C141.46 57.9 140.63 57.78 139.38 57.78C137.42 57.78 135.28 59.33 134.33 60.57V80.66H124.23V49.23H132.13L133.2 53.45H133.19Z" fill="#2B4A79"/>
<path d="M158.57 56.54V71.64C158.57 73.25 159.22 73.84 160.65 73.84C161.54 73.84 162.37 73.66 163.21 73.42L164.1 80.2C161.6 81.03 159.23 81.45 156.55 81.45C150.96 81.45 148.53 78.42 148.53 73.55V56.55H144.25V50.84L148.71 49.29L149.66 39.9H158.58V49.23H163.69V56.54H158.57Z" fill="#2B4A79"/>
<path d="M1.23295 14V3.81817H4.6733C5.46875 3.81817 6.12169 3.95406 6.6321 4.22584C7.14252 4.49431 7.52036 4.86386 7.76562 5.33451C8.01089 5.80515 8.13352 6.34043 8.13352 6.94033C8.13352 7.54024 8.01089 8.0722 7.76562 8.53621C7.52036 9.00023 7.14418 9.36481 6.63707 9.62996C6.12997 9.8918 5.48201 10.0227 4.69318 10.0227H1.90909V8.90908H4.65341C5.19697 8.90908 5.63447 8.82954 5.96591 8.67045C6.30066 8.51136 6.54261 8.28598 6.69176 7.99431C6.84422 7.69933 6.92045 7.348 6.92045 6.94033C6.92045 6.53266 6.84422 6.17636 6.69176 5.87144C6.5393 5.56652 6.29569 5.33119 5.96094 5.16547C5.62618 4.99644 5.18371 4.91192 4.63352 4.91192H2.46591V14H1.23295ZM6.02557 9.42613L8.53125 14H7.09943L4.63352 9.42613H6.02557Z" fill="black"/>
<path d="M10.188 14V3.81817H16.3329V4.91192H11.421V8.35226H16.0147V9.44601H11.421V12.9062H16.4125V14H10.188Z" fill="black"/>
<path d="M18.9728 14H17.6802L21.4189 3.81817H22.6916L26.4302 14H25.1376L22.095 5.42897H22.0154L18.9728 14ZM19.4501 10.0227H24.6603V11.1165H19.4501V10.0227Z" fill="black"/>
<path d="M28.0162 14V3.81817H29.2491V12.9062H33.9821V14H28.0162Z" fill="black"/>
<path d="M37.1241 3.81817V14H35.8912V3.81817H37.1241Z" fill="black"/>
<path d="M39.2582 14V13.1051L44.7468 4.91192H39.1985V3.81817H46.2184V4.71306L40.7298 12.9062H46.2781V14H39.2582Z" fill="black"/>
<path d="M48.7639 14H47.4712L51.2099 3.81817H52.4826L56.2212 14H54.9286L51.886 5.42897H51.8065L48.7639 14ZM49.2411 10.0227H54.4514V11.1165H49.2411V10.0227Z" fill="black"/>
<path d="M65.5218 6.99999H64.2889C64.216 6.64535 64.0884 6.3338 63.9061 6.06533C63.7271 5.79687 63.5083 5.57149 63.2498 5.3892C62.9946 5.20359 62.7112 5.06439 62.3997 4.97158C62.0881 4.87878 61.7633 4.83238 61.4252 4.83238C60.8088 4.83238 60.2503 4.98815 59.7498 5.29971C59.2527 5.61126 58.8566 6.0703 58.5616 6.67684C58.2699 7.28337 58.1241 8.02745 58.1241 8.90908C58.1241 9.79071 58.2699 10.5348 58.5616 11.1413C58.8566 11.7479 59.2527 12.2069 59.7498 12.5185C60.2503 12.83 60.8088 12.9858 61.4252 12.9858C61.7633 12.9858 62.0881 12.9394 62.3997 12.8466C62.7112 12.7538 62.9946 12.6162 63.2498 12.4339C63.5083 12.2483 63.7271 12.0213 63.9061 11.7528C64.0884 11.4811 64.216 11.1695 64.2889 10.8182H65.5218C65.429 11.3385 65.26 11.8042 65.0147 12.2152C64.7695 12.6262 64.4646 12.9758 64.1 13.2642C63.7354 13.5492 63.3261 13.7663 62.872 13.9155C62.4212 14.0646 61.939 14.1392 61.4252 14.1392C60.5569 14.1392 59.7846 13.9271 59.1085 13.5028C58.4323 13.0786 57.9004 12.4754 57.5126 11.6932C57.1248 10.911 56.9309 9.98295 56.9309 8.90908C56.9309 7.83522 57.1248 6.90719 57.5126 6.12499C57.9004 5.3428 58.4323 4.73958 59.1085 4.31533C59.7846 3.89109 60.5569 3.67897 61.4252 3.67897C61.939 3.67897 62.4212 3.75354 62.872 3.90269C63.3261 4.05184 63.7354 4.27059 64.1 4.55894C64.4646 4.84398 64.7695 5.19199 65.0147 5.60297C65.26 6.01065 65.429 6.47632 65.5218 6.99999Z" fill="black"/>
<path d="M68.7472 3.81817V14H67.5142V3.81817H68.7472ZM67.5938 2.78408L68.8068 0.477264H70.179L68.6278 2.78408H67.5938Z" fill="black"/>
<path d="M79.8102 8.90908C79.8102 9.98295 79.6163 10.911 79.2285 11.6932C78.8407 12.4754 78.3088 13.0786 77.6326 13.5028C76.9565 13.9271 76.1842 14.1392 75.3159 14.1392C74.4475 14.1392 73.6753 13.9271 72.9991 13.5028C72.323 13.0786 71.791 12.4754 71.4032 11.6932C71.0154 10.911 70.8216 9.98295 70.8216 8.90908C70.8216 7.83522 71.0154 6.90719 71.4032 6.12499C71.791 5.3428 72.323 4.73958 72.9991 4.31533C73.6753 3.89109 74.4475 3.67897 75.3159 3.67897C76.1842 3.67897 76.9565 3.89109 77.6326 4.31533C78.3088 4.73958 78.8407 5.3428 79.2285 6.12499C79.6163 6.90719 79.8102 7.83522 79.8102 8.90908ZM78.617 8.90908C78.617 8.02745 78.4695 7.28337 78.1745 6.67684C77.8829 6.0703 77.4868 5.61126 76.9863 5.29971C76.4892 4.98815 75.9323 4.83238 75.3159 4.83238C74.6994 4.83238 74.1409 4.98815 73.6404 5.29971C73.1433 5.61126 72.7472 6.0703 72.4522 6.67684C72.1606 7.28337 72.0147 8.02745 72.0147 8.90908C72.0147 9.79071 72.1606 10.5348 72.4522 11.1413C72.7472 11.7479 73.1433 12.2069 73.6404 12.5185C74.1409 12.83 74.6994 12.9858 75.3159 12.9858C75.9323 12.9858 76.4892 12.83 76.9863 12.5185C77.4868 12.2069 77.8829 11.7479 78.1745 11.1413C78.4695 10.5348 78.617 9.79071 78.617 8.90908Z" fill="black"/>
<path d="M89.9572 3.81817V14H88.764L83.2157 6.00567H83.1163V14H81.8833V3.81817H83.0765L88.6447 11.8324H88.7441V3.81817H89.9572Z" fill="black"/>
</svg>
